<?xml version="1.0" encoding="UTF-8"?>
<svg width="710px" height="960px" viewBox="0 0 710 960" version="1.1" xmlns="http://www.w3.org/2000/svg" xmlns:xlink="http://www.w3.org/1999/xlink">
    <!-- Generator: Sketch 53 (72520) - https://sketchapp.com -->
    <title>33 graphic</title>
    <desc>Created with Sketch.</desc>
    <defs>
        <polygon id="path-1" points="0.000323789144 0.0746126582 709.978123 0.0746126582 709.978123 960 0.000323789144 960"></polygon>
    </defs>
    <g id="Page-1" stroke="none" stroke-width="1" fill="none" fill-rule="evenodd" opacity="0.65">
        <g id="33-graphic">
            <g>
                <g id="Group-3">
                    <mask id="mask-2" fill="white">
                        <use xlink:href="#path-1"></use>
                    </mask>
                    <g id="Clip-2"></g>
                    <path d="M679.343137,83.6602329 L451.036983,345.587119 C459.398837,346.982157 467.735598,348.376385 476.097453,351.153499 C615.310596,384.602815 709.978447,493.269144 709.978447,646.517549 C709.978447,851.32079 562.40264,960.000081 363.350835,960.000081 C185.165622,960.000081 64.0320555,877.784385 0.000323789144,756.578106 L125.301866,691.099625 C167.060952,764.934562 231.092683,834.597347 357.775996,834.597347 C470.522614,834.597347 558.234664,759.368182 558.234664,640.938208 C558.234664,523.916233 464.949393,445.896992 345.246165,445.896992 C270.064754,445.896992 225.518653,461.227018 196.289398,473.766967 L183.759567,462.609094 L477.478414,125.465195 L192.121422,125.465195 L192.121422,217.407271 L76.5626954,217.407271 L76.5626954,0.0746126582 L679.343137,0.0746126582 L679.343137,83.6602329 Z" id="Fill-1" fill="#E4E3DF" mask="url(#mask-2)"></path>
                </g>
                <path d="M534.390484,650.238469 L492.586699,697.989173 C494.117599,698.243686 495.644445,698.498199 497.175345,699.003994 C522.666288,705.101805 540,724.912623 540,752.850893 C540,790.187566 512.978157,810 476.531711,810 C443.904406,810 421.725007,795.012812 410,772.915416 L432.944038,760.978346 C440.589619,774.439263 452.313815,787.139065 475.510841,787.139065 C496.155286,787.139065 512.215139,773.424442 512.215139,751.833649 C512.215139,730.499792 495.134415,716.276144 473.216112,716.276144 C459.450176,716.276144 451.293755,719.07094 445.941281,721.357519 L443.647364,719.32303 L497.428333,657.860127 L445.178264,657.860127 L445.178264,674.621635 L424.018924,674.621635 L424.018924,635 L534.390484,635 L534.390484,650.238469 Z" id="Fill-4" fill="#E4E3DF"></path>
            </g>
        </g>
    </g>
</svg>